<?xml version="1.0" encoding="utf-8"?>
<!-- Generator: Adobe Illustrator 16.0.0, SVG Export Plug-In . SVG Version: 6.00 Build 0)  -->
<!DOCTYPE svg PUBLIC "-//W3C//DTD SVG 1.1//EN" "http://www.w3.org/Graphics/SVG/1.1/DTD/svg11.dtd">
<svg version="1.1" id="Layer_1" xmlns="http://www.w3.org/2000/svg" xmlns:xlink="http://www.w3.org/1999/xlink" x="0px" y="0px"
	 width="203.915px" height="141.872px" viewBox="0 0 203.915 141.872" enable-background="new 0 0 203.915 141.872"
	 xml:space="preserve">
<polygon fill="none" points="72.79,23.725 61.659,69.558 67.386,69.558 72.961,23.725 "/>
<polygon fill="none" points="56.669,90.091 65.083,88.466 67.386,69.558 61.659,69.558 "/>
<path fill="none" d="M86.054,107.452c4.412-12.563,8.45-25.194,12.117-37.895H87.086C86.481,81.68,86.122,94.276,86.054,107.452z"/>
<polygon fill="none" points="147.053,69.558 146.971,69.558 146.926,70.011 "/>
<polygon fill="none" points="162.507,69.558 165.317,69.558 166.546,54.596 "/>
<path stroke="#000000" stroke-width="2.6259" stroke-miterlimit="10" d="M62.79,23.725h0.171l-5.575,45.833h29.7
	c1.239-24.839,3.583-47.531,7.087-67.957L42.04,10.346c-5.065,19.369-10.905,39.11-17.484,59.211h27.104L62.79,23.725z"/>
<path fill="#FFFFFF" stroke="#000000" stroke-width="2.6259" stroke-miterlimit="10" d="M1.222,134.345l36.015-5.487l3.6-15.098
	l11.49-2.226l-2.571,21.435l29.415-6.796c2.383-6.223,4.686-12.463,6.883-18.721c0.068-13.176,0.427-25.772,1.033-37.895h-29.7
	l-2.303,18.908l-8.415,1.625l4.99-20.533H24.556C17.617,90.751,9.847,112.341,1.222,134.345"/>
<path fill="#FFFFFF" stroke="#000000" stroke-width="2.6259" stroke-miterlimit="10" d="M202.391,5.03l-39.41,6.854l-15.928,57.673
	h15.454l4.039-14.962l-1.229,14.962h31.099C197.523,49.425,199.51,27.926,202.391,5.03z"/>
<polygon stroke="#000000" stroke-width="2.6259" stroke-miterlimit="10" points="146.926,70.011 146.971,69.558 132.802,69.558 
	125.215,140.345 144.085,137.77 162.507,69.558 147.053,69.558 "/>
<path stroke="#000000" stroke-width="2.6259" stroke-miterlimit="10" d="M165.317,69.558l-4.942,60.154l34.984-6.179
	c0-5.827,0-11.712,0-17.658c0-11.558,0.357-23.675,1.057-36.317H165.317z"/>
<path stroke="#000000" stroke-width="2.6259" stroke-miterlimit="10" d="M86.054,107.452c-0.027,5.61-0.01,11.315,0.06,17.117
	l-6.942,1.604c-0.887,2.32-1.747,4.646-2.66,6.967l35.672-4.803l15.288-58.779h-29.3C94.504,82.258,90.466,94.89,86.054,107.452z"/>
<path fill="#FFFFFF" stroke="#000000" stroke-width="2.6259" stroke-miterlimit="10" d="M152.829,7.089l-40.988,6.689
	c-3.76,18.741-8.341,37.329-13.67,55.779h29.3l9.066-34.859l-3.735,34.859h14.169L152.829,7.089z"/>
<path d="M86.054,107.452c-2.197,6.258-4.5,12.498-6.883,18.721l6.942-1.604C86.043,118.768,86.026,113.063,86.054,107.452z"/>
</svg>
